<svg id="Calque_1" data-name="Calque 1" xmlns="http://www.w3.org/2000/svg" xmlns:xlink="http://www.w3.org/1999/xlink" viewBox="0 0 355.96 355.66"><defs><style>.cls-1{fill:#f5bf1f;}.cls-2{clip-path:url(#clip-path);}</style><clipPath id="clip-path" transform="translate(-574.47 135.96)"><path class="cls-1" d="M670.77,64.16c16.52,49.23,104,69.84,145,32.87,30.49-27.49,11-138.36-29.41-145.89a81.14,81.14,0,0,0-14.9-1.39C706.8-50.25,658.63,28,670.77,64.16"/></clipPath></defs><title>forme2</title><path class="cls-1" d="M670.77,64.16c16.52,49.23,104,69.84,145,32.87,30.49-27.49,11-138.36-29.41-145.89a81.14,81.14,0,0,0-14.9-1.39C706.8-50.25,658.63,28,670.77,64.16" transform="translate(-574.47 135.96)"/><g class="cls-2"><rect class="cls-1" x="623.59" y="-86.49" width="257.72" height="256.72" transform="translate(-475.88 552.53) rotate(-33)"/></g></svg>