<svg id="Calque_1" data-name="Calque 1" xmlns="http://www.w3.org/2000/svg" xmlns:xlink="http://www.w3.org/1999/xlink" viewBox="0 0 204.12 166.5"><defs><style>.cls-1{fill:#f5bf1f;}.cls-2{clip-path:url(#clip-path);}</style><clipPath id="clip-path" transform="translate(-158.87 43.03)"><path class="cls-1" d="M168.62,64.26c4.35,30.83,56,55.63,95.46,55.74h0.53c12.36,0,23.5-2.51,31.58-8C360.2,68.55,316.52-26.64,277-37.58a56.29,56.29,0,0,0-15-2c-47.21,0-100.27,54.49-93.3,103.82"/></clipPath></defs><title>forme3</title><path class="cls-1" d="M168.62,64.26c4.35,30.83,56,55.63,95.46,55.74h0.53c12.36,0,23.5-2.51,31.58-8C360.2,68.55,316.52-26.64,277-37.58a56.29,56.29,0,0,0-15-2c-47.21,0-100.27,54.49-93.3,103.82" transform="translate(-158.87 43.03)"/><g class="cls-2"><rect class="cls-1" x="179.42" y="-60.44" width="163.01" height="201.3" transform="translate(57.3 343.44) rotate(-89)"/></g></svg>