<svg id="Calque_1" data-name="Calque 1" xmlns="http://www.w3.org/2000/svg" xmlns:xlink="http://www.w3.org/1999/xlink" viewBox="0 0 1366 355.66"><defs><style>.cls-1{fill:#f5bf1f;}.cls-2{fill:#fff;}.cls-3{clip-path:url(#clip-path);}.cls-4{clip-path:url(#clip-path-2);}.cls-5{clip-path:url(#clip-path-3);}.cls-6{clip-path:url(#clip-path-4);}</style><clipPath id="clip-path" transform="translate(0 135.96)"><path class="cls-1" d="M444.62,64.26c4.35,30.83,56,55.63,95.46,55.74h0.53c12.36,0,23.5-2.51,31.58-8C636.2,68.55,592.52-26.64,553-37.58a56.29,56.29,0,0,0-15-2c-47.21,0-100.27,54.49-93.3,103.82"/></clipPath><clipPath id="clip-path-2" transform="translate(0 135.96)"><path class="cls-1" d="M670.77,64.16c16.52,49.23,104,69.84,145,32.87,30.49-27.49,11-138.36-29.41-145.89a81.14,81.14,0,0,0-14.9-1.39C706.8-50.25,658.63,28,670.77,64.16"/></clipPath><clipPath id="clip-path-3" transform="translate(0 135.96)"><path class="cls-1" d="M168.62,64.26c4.35,30.83,56,55.63,95.46,55.74h0.53c12.36,0,23.5-2.51,31.58-8C360.2,68.55,316.52-26.64,277-37.58a56.29,56.29,0,0,0-15-2c-47.21,0-100.27,54.49-93.3,103.82"/></clipPath><clipPath id="clip-path-4" transform="translate(0 135.96)"><path class="cls-1" d="M1017.93-39.83A65.71,65.71,0,0,0,1002-37.91c-39.83,10-60.63,100.5-34.15,131.87,49.91,59.11,140,5.72,146.75-34.77,7.7-46.23-46.58-99-96.61-99h-0.05Z"/></clipPath></defs><title>forme4</title><rect class="cls-2" y="135.96" width="1366" height="32.84"/><path class="cls-1" d="M444.62,64.26c4.35,30.83,56,55.63,95.46,55.74h0.53c12.36,0,23.5-2.51,31.58-8C636.2,68.55,592.52-26.64,553-37.58a56.29,56.29,0,0,0-15-2c-47.21,0-100.27,54.49-93.3,103.82" transform="translate(0 135.96)"/><g class="cls-3"><rect class="cls-1" x="455.42" y="-60.44" width="163.01" height="201.3" transform="translate(487.35 712.32) rotate(-89)"/></g><path class="cls-1" d="M670.77,64.16c16.52,49.23,104,69.84,145,32.87,30.49-27.49,11-138.36-29.41-145.89a81.14,81.14,0,0,0-14.9-1.39C706.8-50.25,658.63,28,670.77,64.16" transform="translate(0 135.96)"/><g class="cls-4"><rect class="cls-1" x="623.59" y="-86.49" width="257.72" height="256.72" transform="translate(98.59 552.53) rotate(-33)"/></g><path class="cls-1" d="M168.62,64.26c4.35,30.83,56,55.63,95.46,55.74h0.53c12.36,0,23.5-2.51,31.58-8C360.2,68.55,316.52-26.64,277-37.58a56.29,56.29,0,0,0-15-2c-47.21,0-100.27,54.49-93.3,103.82" transform="translate(0 135.96)"/><g class="cls-5"><rect class="cls-1" x="179.42" y="-60.44" width="163.01" height="201.3" transform="translate(216.17 436.36) rotate(-89)"/></g><path class="cls-1" d="M1017.93-39.83A65.71,65.71,0,0,0,1002-37.91c-39.83,10-60.63,100.5-34.15,131.87,49.91,59.11,140,5.72,146.75-34.77,7.7-46.23-46.58-99-96.61-99h-0.05Z" transform="translate(0 135.96)"/><g class="cls-6"><rect class="cls-1" x="933.29" y="-47.34" width="197.06" height="207.94" transform="translate(-1.01 226.1) rotate(-5)"/></g></svg>