<svg id="Calque_1" data-name="Calque 1" xmlns="http://www.w3.org/2000/svg" xmlns:xlink="http://www.w3.org/1999/xlink" viewBox="0 0 1366 166.5"><defs><style>.cls-1{fill:#f5bf1f;}.cls-2{fill:#fff;}.cls-3{clip-path:url(#clip-path);}</style><clipPath id="clip-path" transform="translate(0 43.03)"><path class="cls-1" d="M444.62,64.26c4.35,30.83,56,55.63,95.46,55.74h0.53c12.36,0,23.5-2.51,31.58-8C636.2,68.55,592.52-26.64,553-37.58a56.29,56.29,0,0,0-15-2c-47.21,0-100.27,54.49-93.3,103.82"/></clipPath></defs><title>forme1</title><polygon class="cls-2" points="674 156.25 0 75.88 1366 75.88 674 156.25"/><rect class="cls-2" y="43.03" width="1366" height="32.84"/><path class="cls-1" d="M444.62,64.26c4.35,30.83,56,55.63,95.46,55.74h0.53c12.36,0,23.5-2.51,31.58-8C636.2,68.55,592.52-26.64,553-37.58a56.29,56.29,0,0,0-15-2c-47.21,0-100.27,54.49-93.3,103.82" transform="translate(0 43.03)"/><g class="cls-3"><rect class="cls-1" x="455.42" y="-60.44" width="163.01" height="201.3" transform="translate(487.35 619.39) rotate(-89)"/></g></svg>